<svg xmlns="http://www.w3.org/2000/svg" width="250" height="250" fill="none"><g clip-path="url(#a)"><path fill="url(#b)" d="M165.052 0C148.333 0 133.594 9.089 125 22.031 116.38 9.09 101.667 0 84.948 0c-26.562 0-48.49 20.313-48.49 46.875 0 22.76 13.985 42.813 34.454 63.307C82.188 121.432 125 156.25 125 156.25s42.813-34.818 54.089-46.068c20.468-20.469 34.453-40.547 34.453-63.307C213.542 20.313 191.615 0 165.052 0"/><path fill="url(#c)" d="M84.948 0C101.667 0 116.406 9.089 125 22.031V156.25s-42.812-34.818-54.088-46.068c-20.47-20.469-34.454-40.547-34.454-63.307C36.459 20.313 58.387 0 84.949 0"/><path fill="url(#d)" d="M84.948 0C101.667 0 116.406 9.089 125 22.031V156.25s-42.812-34.818-54.088-46.068c-20.47-20.469-34.454-40.547-34.454-63.307C36.459 20.313 58.387 0 84.949 0"/><path fill="url(#e)" d="M84.948 0C101.667 0 116.406 9.089 125 22.031V156.25s-42.812-34.818-54.088-46.068c-20.47-20.469-34.454-40.547-34.454-63.307C36.459 20.313 58.387 0 84.949 0"/><path fill="url(#f)" d="M165.052 0C148.333 0 133.62 9.089 125 22.031V156.25s42.812-34.818 54.089-46.068c20.468-20.469 34.453-40.547 34.453-63.307C213.542 20.313 191.615 0 165.052 0"/><path fill="url(#g)" d="M15.625 174.375 0 65.105A2.61 2.61 0 0 1 2.604 62.5h1.12c6.745 0 12.37 5.13 12.969 11.849l22.37 84.505z"/><path fill="url(#h)" d="M15.625 174.375 0 65.105A2.61 2.61 0 0 1 2.604 62.5h1.12c6.745 0 12.37 5.13 12.969 11.849l22.37 84.505z"/><path fill="url(#i)" d="m39.063 158.854-13.49-77.057c.286-6.563-4.375-12.318-10.86-13.386h-.104c1.146 1.72 1.928 3.724 2.136 5.912l22.37 84.505z"/><path fill="url(#j)" d="m65.104 187.5-6.354-15.911-19.687-12.735-23.438 15.521c0 1.771.443 3.516 1.302 5.052l31.875 38.62a26 26 0 0 1 3.281 12.656v-1.536z"/><path fill="url(#k)" d="M98.959 205.964v38.828c0 2.864-2.344 5.208-5.209 5.208H57.292c-2.865 0-5.209-2.344-5.209-5.208v-15.625L65.105 187.5l-10.416-26.042c-5.209-10.416-5.6-22.448.729-24.557l2.083-.703a2.62 2.62 0 0 1 3.281 1.588l36.354 57.579a31.2 31.2 0 0 1 1.85 10.573z"/><path fill="url(#l)" d="M98.959 205.964v38.828c0 2.864-2.344 5.208-5.209 5.208H57.292c-2.865 0-5.209-2.344-5.209-5.208v-15.625L65.105 187.5l-10.416-26.042c-5.209-10.416-5.6-22.448.729-24.557l2.083-.703a2.62 2.62 0 0 1 3.281 1.588l36.354 57.579a31.2 31.2 0 0 1 1.85 10.573z"/><path fill="url(#m)" d="m65.104 187.5-6.354-15.911-19.687-12.735-23.438 15.521c0 1.771.443 3.516 1.302 5.052l31.875 38.62a26 26 0 0 1 3.281 12.656v-1.536z"/><path fill="url(#n)" d="M234.375 174.375 250 65.105a2.61 2.61 0 0 0-2.604-2.605h-1.12c-6.745 0-12.37 5.13-12.969 11.849l-22.369 84.505z"/><path fill="url(#o)" d="M234.375 174.375 250 65.105a2.61 2.61 0 0 0-2.604-2.605h-1.12c-6.745 0-12.37 5.13-12.969 11.849l-22.369 84.505z"/><path fill="url(#p)" d="m210.937 158.854 13.49-77.057c-.287-6.563 4.375-12.318 10.859-13.386h.104c-1.145 1.72-1.927 3.724-2.135 5.912l-22.37 84.505z"/><path fill="url(#q)" d="m184.896 187.5 6.354-15.911 19.688-12.735 23.437 15.521c0 1.771-.443 3.516-1.302 5.052l-31.875 38.62a26 26 0 0 0-3.281 12.656v-1.536z"/><path fill="url(#r)" d="M151.042 205.964v38.828c0 2.864 2.343 5.208 5.208 5.208h36.458c2.865 0 5.209-2.344 5.209-5.208v-15.625L184.896 187.5l10.416-26.042c5.209-10.416 5.599-22.448-.729-24.557l-2.083-.703a2.62 2.62 0 0 0-3.281 1.588l-36.354 57.579a31.2 31.2 0 0 0-1.849 10.573z"/><path fill="url(#s)" d="M151.042 205.964v38.828c0 2.864 2.343 5.208 5.208 5.208h36.458c2.865 0 5.209-2.344 5.209-5.208v-15.625L184.896 187.5l10.416-26.042c5.209-10.416 5.599-22.448-.729-24.557l-2.083-.703a2.62 2.62 0 0 0-3.281 1.588l-36.354 57.579a31.2 31.2 0 0 0-1.849 10.573z"/><path fill="url(#t)" d="m184.896 187.5 6.354-15.911 19.688-12.735 23.437 15.521c0 1.771-.443 3.516-1.302 5.052l-31.875 38.62a26 26 0 0 0-3.281 12.656v-1.536z"/></g><defs><linearGradient id="b" x1="184.037" x2="-20.911" y1="103.464" y2="-69.063" gradientUnits="userSpaceOnUse"><stop stop-color="#605EFF" stop-opacity=".96"/><stop offset=".04" stop-color="#605EFF" stop-opacity=".78"/><stop offset=".07" stop-color="#605EFF" stop-opacity=".61"/><stop offset=".1" stop-color="#605EFF" stop-opacity=".47"/><stop offset=".14" stop-color="#605EFF" stop-opacity=".34"/><stop offset=".19" stop-color="#605EFF" stop-opacity=".23"/><stop offset=".24" stop-color="#605EFF" stop-opacity=".15"/><stop offset=".29" stop-color="#605EFF" stop-opacity=".08"/><stop offset=".36" stop-color="#605EFF" stop-opacity=".03"/><stop offset=".46" stop-color="#605EFF" stop-opacity="0"/><stop offset=".74" stop-color="#605EFF" stop-opacity="0"/></linearGradient><linearGradient id="c" x1="76.172" x2="86.537" y1="-10" y2="94.088" gradientUnits="userSpaceOnUse"><stop stop-color="#605EFF" stop-opacity=".96"/><stop offset=".04" stop-color="#605EFF" stop-opacity=".78"/><stop offset=".09" stop-color="#605EFF" stop-opacity=".61"/><stop offset=".13" stop-color="#605EFF" stop-opacity=".47"/><stop offset=".18" stop-color="#605EFF" stop-opacity=".34"/><stop offset=".24" stop-color="#605EFF" stop-opacity=".23"/><stop offset=".3" stop-color="#605EFF" stop-opacity=".15"/><stop offset=".37" stop-color="#605EFF" stop-opacity=".08"/><stop offset=".46" stop-color="#605EFF" stop-opacity=".03"/><stop offset=".58" stop-color="#605EFF" stop-opacity="0"/><stop offset=".93" stop-color="#605EFF" stop-opacity="0"/></linearGradient><linearGradient id="d" x1="145.912" x2="58.151" y1="40.833" y2="107.109" gradientUnits="userSpaceOnUse"><stop stop-color="#605EFF" stop-opacity=".96"/><stop offset=".04" stop-color="#605EFF" stop-opacity=".78"/><stop offset=".07" stop-color="#605EFF" stop-opacity=".61"/><stop offset=".11" stop-color="#605EFF" stop-opacity=".47"/><stop offset=".16" stop-color="#605EFF" stop-opacity=".34"/><stop offset=".2" stop-color="#605EFF" stop-opacity=".23"/><stop offset=".25" stop-color="#605EFF" stop-opacity=".15"/><stop offset=".32" stop-color="#605EFF" stop-opacity=".08"/><stop offset=".39" stop-color="#605EFF" stop-opacity=".03"/><stop offset=".5" stop-color="#605EFF" stop-opacity="0"/><stop offset=".8" stop-color="#605EFF" stop-opacity="0"/></linearGradient><linearGradient id="g" x1="8.359" x2="36.693" y1="118.568" y2="113.229" gradientUnits="userSpaceOnUse"><stop stop-color="#605EFF"/><stop offset=".02" stop-color="#605EFF" stop-opacity=".94"/><stop offset=".08" stop-color="#605EFF" stop-opacity=".75"/><stop offset=".15" stop-color="#605EFF" stop-opacity=".57"/><stop offset=".23" stop-color="#605EFF" stop-opacity=".42"/><stop offset=".3" stop-color="#605EFF" stop-opacity=".29"/><stop offset=".39" stop-color="#605EFF" stop-opacity=".18"/><stop offset=".48" stop-color="#605EFF" stop-opacity=".1"/><stop offset=".58" stop-color="#605EFF" stop-opacity=".04"/><stop offset=".7" stop-color="#605EFF" stop-opacity=".01"/><stop offset=".9" stop-color="#605EFF" stop-opacity="0"/></linearGradient><linearGradient id="h" x1="34.557" x2="10.156" y1="111.667" y2="118.125" gradientUnits="userSpaceOnUse"><stop stop-color="#605EFF" stop-opacity=".96"/><stop offset=".05" stop-color="#605EFF" stop-opacity=".78"/><stop offset=".09" stop-color="#605EFF" stop-opacity=".61"/><stop offset=".14" stop-color="#605EFF" stop-opacity=".47"/><stop offset=".2" stop-color="#605EFF" stop-opacity=".34"/><stop offset=".25" stop-color="#605EFF" stop-opacity=".23"/><stop offset=".32" stop-color="#605EFF" stop-opacity=".15"/><stop offset=".4" stop-color="#605EFF" stop-opacity=".08"/><stop offset=".49" stop-color="#605EFF" stop-opacity=".03"/><stop offset=".63" stop-color="#605EFF" stop-opacity="0"/><stop offset="1" stop-color="#605EFF" stop-opacity="0"/></linearGradient><linearGradient id="i" x1="22.604" x2="37.188" y1="114.375" y2="111.797" gradientUnits="userSpaceOnUse"><stop stop-color="#605EFF"/><stop offset=".08" stop-color="#605EFF" stop-opacity=".81"/><stop offset=".17" stop-color="#605EFF" stop-opacity=".63"/><stop offset=".26" stop-color="#605EFF" stop-opacity=".46"/><stop offset=".36" stop-color="#605EFF" stop-opacity=".32"/><stop offset=".46" stop-color="#605EFF" stop-opacity=".2"/><stop offset=".57" stop-color="#605EFF" stop-opacity=".11"/><stop offset=".69" stop-color="#605EFF" stop-opacity=".05"/><stop offset=".82" stop-color="#605EFF" stop-opacity=".01"/><stop offset="1" stop-color="#605EFF" stop-opacity="0"/></linearGradient><linearGradient id="j" x1="35.964" x2="60.833" y1="199.74" y2="166.849" gradientUnits="userSpaceOnUse"><stop stop-color="#605EFF"/><stop offset=".1" stop-color="#605EFF" stop-opacity=".82"/><stop offset=".23" stop-color="#605EFF" stop-opacity=".61"/><stop offset=".37" stop-color="#605EFF" stop-opacity=".42"/><stop offset=".5" stop-color="#605EFF" stop-opacity=".27"/><stop offset=".63" stop-color="#605EFF" stop-opacity=".15"/><stop offset=".76" stop-color="#605EFF" stop-opacity=".07"/><stop offset=".88" stop-color="#605EFF" stop-opacity=".02"/><stop offset="1" stop-color="#605EFF" stop-opacity="0"/></linearGradient><linearGradient id="k" x1="105.807" x2="51.719" y1="205.234" y2="191.536" gradientUnits="userSpaceOnUse"><stop stop-color="#605EFF"/><stop offset=".01" stop-color="#605EFF" stop-opacity=".97"/><stop offset=".09" stop-color="#605EFF" stop-opacity=".77"/><stop offset=".17" stop-color="#605EFF" stop-opacity=".59"/><stop offset=".26" stop-color="#605EFF" stop-opacity=".43"/><stop offset=".35" stop-color="#605EFF" stop-opacity=".3"/><stop offset=".44" stop-color="#605EFF" stop-opacity=".19"/><stop offset=".55" stop-color="#605EFF" stop-opacity=".1"/><stop offset=".66" stop-color="#605EFF" stop-opacity=".05"/><stop offset=".8" stop-color="#605EFF" stop-opacity=".01"/><stop offset="1" stop-color="#605EFF" stop-opacity="0"/></linearGradient><linearGradient id="l" x1="53.906" x2="88.099" y1="203.62" y2="187.24" gradientUnits="userSpaceOnUse"><stop stop-color="#605EFF"/><stop offset=".09" stop-color="#605EFF" stop-opacity=".98"/><stop offset=".22" stop-color="#605EFF" stop-opacity=".91"/><stop offset=".36" stop-color="#605EFF" stop-opacity=".8"/><stop offset=".52" stop-color="#605EFF" stop-opacity=".64"/><stop offset=".69" stop-color="#605EFF" stop-opacity=".45"/><stop offset=".86" stop-color="#605EFF" stop-opacity=".21"/><stop offset="1" stop-color="#605EFF" stop-opacity="0"/></linearGradient><linearGradient id="m" x1="32.5" x2="65" y1="201.589" y2="184.635" gradientUnits="userSpaceOnUse"><stop stop-color="#605EFF"/><stop offset=".05" stop-color="#605EFF" stop-opacity=".83"/><stop offset=".1" stop-color="#605EFF" stop-opacity=".66"/><stop offset=".16" stop-color="#605EFF" stop-opacity=".5"/><stop offset=".22" stop-color="#605EFF" stop-opacity=".36"/><stop offset=".29" stop-color="#605EFF" stop-opacity=".25"/><stop offset=".37" stop-color="#605EFF" stop-opacity=".16"/><stop offset=".45" stop-color="#605EFF" stop-opacity=".09"/><stop offset=".56" stop-color="#605EFF" stop-opacity=".04"/><stop offset=".69" stop-color="#605EFF" stop-opacity="0"/><stop offset="1" stop-color="#605EFF" stop-opacity="0"/></linearGradient><linearGradient id="n" x1="241.641" x2="213.307" y1="118.568" y2="113.229" gradientUnits="userSpaceOnUse"><stop stop-color="#605EFF"/><stop offset=".02" stop-color="#605EFF" stop-opacity=".94"/><stop offset=".08" stop-color="#605EFF" stop-opacity=".75"/><stop offset=".15" stop-color="#605EFF" stop-opacity=".57"/><stop offset=".23" stop-color="#605EFF" stop-opacity=".42"/><stop offset=".3" stop-color="#605EFF" stop-opacity=".29"/><stop offset=".39" stop-color="#605EFF" stop-opacity=".18"/><stop offset=".48" stop-color="#605EFF" stop-opacity=".1"/><stop offset=".58" stop-color="#605EFF" stop-opacity=".04"/><stop offset=".7" stop-color="#605EFF" stop-opacity=".01"/><stop offset=".9" stop-color="#605EFF" stop-opacity="0"/></linearGradient><linearGradient id="o" x1="215.443" x2="239.844" y1="111.667" y2="118.125" gradientUnits="userSpaceOnUse"><stop stop-color="#605EFF" stop-opacity=".96"/><stop offset=".05" stop-color="#605EFF" stop-opacity=".78"/><stop offset=".09" stop-color="#605EFF" stop-opacity=".61"/><stop offset=".14" stop-color="#605EFF" stop-opacity=".47"/><stop offset=".2" stop-color="#605EFF" stop-opacity=".34"/><stop offset=".25" stop-color="#605EFF" stop-opacity=".23"/><stop offset=".32" stop-color="#605EFF" stop-opacity=".15"/><stop offset=".4" stop-color="#605EFF" stop-opacity=".08"/><stop offset=".49" stop-color="#605EFF" stop-opacity=".03"/><stop offset=".63" stop-color="#605EFF" stop-opacity="0"/><stop offset="1" stop-color="#605EFF" stop-opacity="0"/></linearGradient><linearGradient id="p" x1="227.396" x2="212.812" y1="114.375" y2="111.797" gradientUnits="userSpaceOnUse"><stop stop-color="#605EFF"/><stop offset=".08" stop-color="#605EFF" stop-opacity=".81"/><stop offset=".17" stop-color="#605EFF" stop-opacity=".63"/><stop offset=".26" stop-color="#605EFF" stop-opacity=".46"/><stop offset=".36" stop-color="#605EFF" stop-opacity=".32"/><stop offset=".46" stop-color="#605EFF" stop-opacity=".2"/><stop offset=".57" stop-color="#605EFF" stop-opacity=".11"/><stop offset=".69" stop-color="#605EFF" stop-opacity=".05"/><stop offset=".82" stop-color="#605EFF" stop-opacity=".01"/><stop offset="1" stop-color="#605EFF" stop-opacity="0"/></linearGradient><linearGradient id="q" x1="214.037" x2="189.167" y1="199.74" y2="166.849" gradientUnits="userSpaceOnUse"><stop stop-color="#605EFF"/><stop offset=".1" stop-color="#605EFF" stop-opacity=".82"/><stop offset=".23" stop-color="#605EFF" stop-opacity=".61"/><stop offset=".37" stop-color="#605EFF" stop-opacity=".42"/><stop offset=".5" stop-color="#605EFF" stop-opacity=".27"/><stop offset=".63" stop-color="#605EFF" stop-opacity=".15"/><stop offset=".76" stop-color="#605EFF" stop-opacity=".07"/><stop offset=".88" stop-color="#605EFF" stop-opacity=".02"/><stop offset="1" stop-color="#605EFF" stop-opacity="0"/></linearGradient><linearGradient id="r" x1="144.193" x2="198.281" y1="205.234" y2="191.536" gradientUnits="userSpaceOnUse"><stop stop-color="#605EFF"/><stop offset=".01" stop-color="#605EFF" stop-opacity=".97"/><stop offset=".09" stop-color="#605EFF" stop-opacity=".77"/><stop offset=".17" stop-color="#605EFF" stop-opacity=".59"/><stop offset=".26" stop-color="#605EFF" stop-opacity=".43"/><stop offset=".35" stop-color="#605EFF" stop-opacity=".3"/><stop offset=".44" stop-color="#605EFF" stop-opacity=".19"/><stop offset=".55" stop-color="#605EFF" stop-opacity=".1"/><stop offset=".66" stop-color="#605EFF" stop-opacity=".05"/><stop offset=".8" stop-color="#605EFF" stop-opacity=".01"/><stop offset="1" stop-color="#605EFF" stop-opacity="0"/></linearGradient><linearGradient id="s" x1="196.094" x2="161.901" y1="203.62" y2="187.24" gradientUnits="userSpaceOnUse"><stop stop-color="#605EFF"/><stop offset=".09" stop-color="#605EFF" stop-opacity=".98"/><stop offset=".22" stop-color="#605EFF" stop-opacity=".91"/><stop offset=".36" stop-color="#605EFF" stop-opacity=".8"/><stop offset=".52" stop-color="#605EFF" stop-opacity=".64"/><stop offset=".69" stop-color="#605EFF" stop-opacity=".45"/><stop offset=".86" stop-color="#605EFF" stop-opacity=".21"/><stop offset="1" stop-color="#605EFF" stop-opacity="0"/></linearGradient><linearGradient id="t" x1="217.5" x2="185" y1="201.589" y2="184.635" gradientUnits="userSpaceOnUse"><stop stop-color="#605EFF"/><stop offset=".05" stop-color="#605EFF" stop-opacity=".83"/><stop offset=".1" stop-color="#605EFF" stop-opacity=".66"/><stop offset=".16" stop-color="#605EFF" stop-opacity=".5"/><stop offset=".22" stop-color="#605EFF" stop-opacity=".36"/><stop offset=".29" stop-color="#605EFF" stop-opacity=".25"/><stop offset=".37" stop-color="#605EFF" stop-opacity=".16"/><stop offset=".45" stop-color="#605EFF" stop-opacity=".09"/><stop offset=".56" stop-color="#605EFF" stop-opacity=".04"/><stop offset=".69" stop-color="#605EFF" stop-opacity="0"/><stop offset="1" stop-color="#605EFF" stop-opacity="0"/></linearGradient><radialGradient id="e" cx="0" cy="0" r="1" gradientTransform="rotate(45.4 -28.804 233.756) scale(179.453 109.466)" gradientUnits="userSpaceOnUse"><stop stop-color="#605EFF" stop-opacity="0"/><stop offset=".37" stop-color="#605EFF" stop-opacity="0"/><stop offset=".51" stop-color="#605EFF" stop-opacity=".03"/><stop offset=".6" stop-color="#605EFF" stop-opacity=".08"/><stop offset=".68" stop-color="#605EFF" stop-opacity=".15"/><stop offset=".75" stop-color="#605EFF" stop-opacity=".23"/><stop offset=".8" stop-color="#605EFF" stop-opacity=".34"/><stop offset=".86" stop-color="#605EFF" stop-opacity=".47"/><stop offset=".91" stop-color="#605EFF" stop-opacity=".61"/><stop offset=".95" stop-color="#605EFF" stop-opacity=".78"/><stop offset=".99" stop-color="#605EFF" stop-opacity=".96"/><stop offset="1" stop-color="#605EFF"/></radialGradient><radialGradient id="f" cx="0" cy="0" r="1" gradientTransform="rotate(26.71 -200.465 273.889) scale(110.365 156.718)" gradientUnits="userSpaceOnUse"><stop offset=".17" stop-color="#605EFF" stop-opacity="0"/><stop offset=".48" stop-color="#605EFF" stop-opacity="0"/><stop offset=".59" stop-color="#605EFF" stop-opacity=".03"/><stop offset=".67" stop-color="#605EFF" stop-opacity=".08"/><stop offset=".73" stop-color="#605EFF" stop-opacity=".15"/><stop offset=".79" stop-color="#605EFF" stop-opacity=".23"/><stop offset=".84" stop-color="#605EFF" stop-opacity=".34"/><stop offset=".88" stop-color="#605EFF" stop-opacity=".47"/><stop offset=".92" stop-color="#605EFF" stop-opacity=".61"/><stop offset=".96" stop-color="#605EFF" stop-opacity=".78"/><stop offset=".99" stop-color="#605EFF" stop-opacity=".96"/><stop offset="1" stop-color="#605EFF"/></radialGradient><clipPath id="a"><path fill="#fff" d="M0 0h250v250H0z"/></clipPath></defs></svg>